<?xml version="1.0" standalone="no"?><!DOCTYPE svg PUBLIC "-//W3C//DTD SVG 1.1//EN" "http://www.w3.org/Graphics/SVG/1.1/DTD/svg11.dtd"><svg t="1508129372486" class="icon" style="" viewBox="0 0 1024 1024" version="1.1" xmlns="http://www.w3.org/2000/svg" p-id="1014" xmlns:xlink="http://www.w3.org/1999/xlink" width="200" height="200"><defs><style type="text/css"></style></defs><path d="M354.304 765.952h59.392v59.392h-59.392zM610.304 765.952h59.392v59.392h-59.392zM481.28 765.952h59.392v59.392h-59.392zM276.48 702.464c4.096-83.968 49.152-149.504 124.928-180.224l6.144-2.048-6.144-4.096a172.6464 172.6464 0 0 1-67.584-137.216c0-96.256 79.872-176.128 176.128-176.128s176.128 79.872 176.128 176.128c0 53.248-24.576 104.448-67.584 137.216l-4.096 4.096 6.144 2.048c75.776 32.768 120.832 96.256 124.928 180.224H276.48z m235.52-450.56c-67.584 0-124.928 55.296-124.928 124.928 0 38.912 16.384 73.728 47.104 98.304 16.384 12.288 22.528 32.768 20.48 51.2-2.048 20.48-16.384 36.864-32.768 43.008-36.864 16.384-65.536 40.96-79.872 75.776l-2.048 6.144h346.112l-2.048-6.144c-14.336-32.768-43.008-59.392-79.872-75.776-18.432-8.192-30.72-24.576-32.768-43.008-2.048-18.432 6.144-38.912 20.48-51.2 30.72-24.576 47.104-59.392 47.104-98.304-2.048-67.584-59.392-124.928-126.976-124.928z" fill="#07CFAD" p-id="1015"></path><path d="M512 90.112c231.424 0 421.888 188.416 421.888 421.888 0 231.424-188.416 421.888-421.888 421.888-231.424 0-421.888-190.464-421.888-421.888S280.576 90.112 512 90.112m0-53.248C249.856 36.864 34.816 249.856 34.816 512c0 262.144 212.992 475.136 477.184 475.136 262.144 0 475.136-212.992 475.136-475.136C987.136 249.856 774.144 36.864 512 36.864z" fill="#07CFAD" p-id="1016"></path></svg>